<svg preserveAspectRatio="none" width="100%" height="100%" overflow="visible" style="display: block;" viewBox="0 0 20.1667 22.5" fill="none" xmlns="http://www.w3.org/2000/svg">
<g id="Group">
<path id="Vector" d="M10.0833 21.75C10.41 21.75 10.7122 21.6018 11.3177 21.3043L16.185 18.9197C18.3398 17.8638 19.4167 17.3353 19.4167 16.5V6M10.0833 21.75C9.75667 21.75 9.4545 21.6018 8.849 21.3043L3.98167 18.9197C1.82683 17.8638 0.750001 17.3353 0.750001 16.5V6M10.0833 21.75V11.25" stroke="var(--stroke-0, white)" stroke-width="1.5" stroke-linecap="round" stroke-linejoin="round"/>
<path id="Vector_2" d="M8.849 1.19567C9.45567 0.898167 9.75783 0.75 10.0833 0.75C10.41 0.75 10.7122 0.898167 11.3177 1.19567L16.185 3.58033C18.3398 4.63617 19.4167 5.16467 19.4167 6C19.4167 6.83533 18.3398 7.36383 16.185 8.41967L11.3177 10.8043C10.711 11.1018 10.4088 11.25 10.0833 11.25C9.75666 11.25 9.4545 11.1018 8.849 10.8043L3.98167 8.41967C1.82683 7.36383 0.75 6.83533 0.75 6C0.75 5.16467 1.82683 4.63617 3.98167 3.58033L8.849 1.19567Z" stroke="var(--stroke-0, white)" stroke-width="1.5" stroke-linejoin="round"/>
</g>
</svg>
