<svg preserveAspectRatio="none" width="100%" height="100%" overflow="visible" style="display: block;" viewBox="0 0 24 24" fill="none" xmlns="http://www.w3.org/2000/svg">
<g id="twemoji:flag-brazil">
<path id="Vector" d="M24 18C24 18.7072 23.719 19.3855 23.219 19.8856C22.7189 20.3857 22.0406 20.6667 21.3333 20.6667H2.66667C1.95942 20.6667 1.28115 20.3857 0.781049 19.8856C0.280952 19.3855 0 18.7072 0 18V6C0 5.29276 0.280952 4.61448 0.781049 4.11438C1.28115 3.61428 1.95942 3.33333 2.66667 3.33333H21.3333C22.0406 3.33333 22.7189 3.61428 23.219 4.11438C23.719 4.61448 24 5.29276 24 6V18Z" fill="var(--fill-0, #009B3A)"/>
<path id="Vector_2" d="M21.8187 12L12 19.416L2.18133 12L12 4.58333L21.8187 12Z" fill="var(--fill-0, #FEDF01)"/>
<path id="Vector_3" d="M11.984 16.2547C14.3618 16.2547 16.2893 14.3271 16.2893 11.9493C16.2893 9.57156 14.3618 7.644 11.984 7.644C9.60623 7.644 7.67867 9.57156 7.67867 11.9493C7.67867 14.3271 9.60623 16.2547 11.984 16.2547Z" fill="var(--fill-0, #002776)"/>
<path id="Vector_4" d="M8.18467 9.92467C7.96099 10.346 7.80955 10.8019 7.73667 11.2733C10.4 11.08 14.0147 12.534 15.566 14.3367C15.834 13.934 16.0327 13.4833 16.1547 13.0007C14.24 11.1287 10.8767 9.914 8.18467 9.92467Z" fill="var(--fill-0, #CBE9D4)"/>
<path id="Vector_5" d="M8 12.1553H8.66667V12.822H8V12.1553ZM8.66667 13.4887H9.33333V14.1553H8.66667V13.4887Z" fill="var(--fill-0, #88C9F9)"/>
<path id="Vector_6" d="M10 12.1553H10.6667V12.822H10V12.1553ZM11.3333 12.822H12V13.4887H11.3333V12.822ZM14 14.1553H14.6667V14.822H14V14.1553ZM12 14.822H12.6667V15.4887H12V14.822ZM14 10.822H14.6667V11.4887H14V10.822Z" fill="var(--fill-0, #55ACEE)"/>
<path id="Vector_7" d="M12.6667 13.4887H13.3333V14.1553H12.6667V13.4887Z" fill="var(--fill-0, #3B88C3)"/>
</g>
</svg>
