<svg preserveAspectRatio="none" width="100%" height="100%" overflow="visible" style="display: block;" viewBox="0 0 24.8333 23.2254" fill="none" xmlns="http://www.w3.org/2000/svg">
<g id="Group">
<path id="Vector" d="M16.5 11.6127C16.5 12.1489 16.3944 12.6799 16.1892 13.1753C15.984 13.6707 15.6832 14.1209 15.304 14.5C14.9249 14.8792 14.4747 15.18 13.9793 15.3852C13.4839 15.5904 12.9529 15.696 12.4167 15.696C11.8804 15.696 11.3495 15.5904 10.8541 15.3852C10.3586 15.18 9.90849 14.8792 9.52932 14.5C9.15015 14.1209 8.84937 13.6707 8.64417 13.1753C8.43896 12.6799 8.33334 12.1489 8.33334 11.6127C8.33334 10.5297 8.76355 9.49111 9.52932 8.72534C10.2951 7.95956 11.3337 7.52936 12.4167 7.52936C13.4996 7.52936 14.5383 7.95956 15.304 8.72534C16.0698 9.49111 16.5 10.5297 16.5 11.6127Z" stroke="var(--stroke-0, white)" stroke-width="1.5"/>
<path id="Vector_2" d="M22.9295 14.0592C23.5385 13.8947 23.843 13.8119 23.9632 13.6555C24.0833 13.498 24.0833 13.246 24.0833 12.7409V10.4845C24.0833 9.97935 24.0833 9.72619 23.9632 9.56985C23.843 9.41352 23.5385 9.33069 22.9295 9.16736C20.6545 8.55369 19.23 6.17486 19.8168 3.91386C19.979 3.29202 20.0595 2.98052 19.9825 2.79852C19.9055 2.61652 19.6838 2.49052 19.2417 2.23969L17.2292 1.09636C16.7952 0.851356 16.5782 0.727689 16.3833 0.753356C16.1885 0.779022 15.968 0.998356 15.5282 1.43819C13.826 3.13569 11.0097 3.13569 9.30634 1.43819C8.86651 0.999522 8.64717 0.780189 8.45234 0.753356C8.25751 0.727689 8.04051 0.850189 7.60651 1.09752L5.59401 2.23969C5.15067 2.49052 4.92901 2.61652 4.85317 2.79969C4.77617 2.98052 4.85667 3.29202 5.01767 3.91386C5.60451 6.17486 4.18001 8.55369 1.90384 9.16736C1.29484 9.33069 0.99034 9.41235 0.870174 9.56985C0.750007 9.72735 0.750007 9.97935 0.750007 10.4845V12.7409C0.750007 13.246 0.750007 13.4992 0.870174 13.6555C0.99034 13.8119 1.29484 13.8947 1.90384 14.0592C4.17884 14.6729 5.60334 17.0517 5.01651 19.3115C4.85434 19.9334 4.77384 20.2449 4.85084 20.4269C4.92784 20.6089 5.14951 20.7349 5.59167 20.9869L7.60417 22.1279C8.03817 22.3752 8.25517 22.4977 8.45001 22.472C8.64484 22.4464 8.86534 22.227 9.30517 21.7872C11.0085 20.0874 13.8272 20.0874 15.5305 21.7872C15.9703 22.2259 16.1897 22.4452 16.3845 22.472C16.5793 22.4977 16.7963 22.3752 17.2315 22.1279L19.2428 20.9857C19.6862 20.7349 19.9078 20.6089 19.9837 20.4257C20.0595 20.2425 19.9802 19.9334 19.8192 19.3115C19.2312 17.0517 20.6545 14.6729 22.9295 14.0592Z" stroke="var(--stroke-0, white)" stroke-width="1.5" stroke-linecap="round"/>
</g>
</svg>
