<svg preserveAspectRatio="none" width="100%" height="100%" overflow="visible" style="display: block;" viewBox="0 0 22.4028 22.4052" fill="none" xmlns="http://www.w3.org/2000/svg">
<g id="Group">
<path id="Vector" d="M12.3681 10.0359L18.2014 4.20252" stroke="var(--stroke-0, white)" stroke-width="1.4"/>
<path id="Vector_2" d="M19.3681 5.36919L17.0348 3.03585L19.9514 1.28585L21.1181 2.45252L19.3681 5.36919ZM1.89726 7.67336C1.33714 7.11373 0.951796 6.40332 0.788157 5.62862C0.624519 4.85393 0.689641 4.04837 0.975596 3.31002L2.6346 4.96902H4.96793V2.63569L3.30893 0.976686C4.04733 0.690084 4.85314 0.624424 5.6282 0.787706C6.40326 0.950987 7.1141 1.33616 7.67411 1.8963C8.23413 2.45644 8.61915 3.16736 8.78226 3.94246C8.94537 4.71755 8.87953 5.52335 8.59276 6.26169L16.1411 13.8112C16.8794 13.5244 17.6852 13.4586 18.4603 13.6217C19.2354 13.7848 19.9463 14.1698 20.5065 14.7298C21.0666 15.2899 21.4518 16.0007 21.6151 16.7758C21.7784 17.5508 21.7127 18.3566 21.4261 19.095L19.7683 17.436H17.4349V19.7694L19.0939 21.4284C18.3557 21.715 17.5501 21.7807 16.7752 21.6176C16.0003 21.4545 15.2895 21.0697 14.7294 20.5098C14.1693 19.95 13.7841 19.2394 13.6207 18.4645C13.4573 17.6897 13.5227 16.884 13.8089 16.1457L6.25826 8.59502C5.52022 8.88048 4.71513 8.94535 3.94091 8.78172C3.16669 8.61809 2.45669 8.23303 1.89726 7.67336Z" stroke="var(--stroke-0, white)" stroke-width="1.4" stroke-linejoin="round"/>
<path id="Vector_3" d="M11.4383 14.1192L4.90026 20.6572C4.75397 20.8038 4.58021 20.92 4.38893 20.9994C4.19765 21.0787 3.9926 21.1196 3.78551 21.1196C3.57843 21.1196 3.37338 21.0787 3.1821 20.9994C2.99081 20.92 2.81705 20.8038 2.67076 20.6572L1.74676 19.7332C1.60019 19.5869 1.48391 19.4131 1.40457 19.2219C1.32524 19.0306 1.2844 18.8255 1.2844 18.6184C1.2844 18.4114 1.32524 18.2063 1.40457 18.015C1.48391 17.8237 1.60019 17.65 1.74676 17.5037L8.28477 10.9657" stroke="var(--stroke-0, white)" stroke-width="1.4" stroke-linejoin="round"/>
</g>
</svg>
