<svg preserveAspectRatio="none" width="100%" height="100%" overflow="visible" style="display: block;" viewBox="0 0 23.6213 23.6201" fill="none" xmlns="http://www.w3.org/2000/svg">
<g id="Group">
<path id="Vector" d="M21.5385 13.4158C20.1502 14.8029 17.5404 14.7493 13.5364 14.7493C12.2989 14.749 11.1122 14.2572 10.2373 13.382C9.36237 12.5069 8.87087 11.3201 8.87087 10.0826C8.87087 6.08095 8.8172 3.46761 10.2044 2.08045C11.5915 0.693279 12.2052 0.750446 18.3524 0.750446C18.4842 0.749774 18.6132 0.788286 18.7231 0.861092C18.833 0.933898 18.9187 1.03771 18.9695 1.15935C19.0202 1.281 19.0337 1.41498 19.0082 1.54429C18.9826 1.6736 18.9192 1.7924 18.826 1.88561L15.6609 5.05078C15.4653 5.24066 15.3094 5.46753 15.2023 5.7182C15.0951 5.96886 15.0389 6.23832 15.0368 6.51091C15.0347 6.7835 15.0869 7.05379 15.1902 7.30605C15.2935 7.55831 15.4459 7.78752 15.6386 7.98036C15.8313 8.17319 16.0604 8.3258 16.3126 8.42931C16.5647 8.53283 16.835 8.58518 17.1076 8.58333C17.3802 8.58147 17.6497 8.52545 17.9004 8.41852C18.1512 8.31159 18.3782 8.15588 18.5682 7.96045L21.7345 4.79645C21.8276 4.70292 21.9464 4.6392 22.0758 4.6134C22.2052 4.58759 22.3394 4.60086 22.4612 4.65152C22.583 4.70218 22.687 4.78794 22.76 4.89789C22.8329 5.00784 22.8715 5.137 22.8709 5.26895C22.8709 11.4149 22.9269 12.0286 21.5385 13.4158Z" stroke="var(--stroke-0, white)" stroke-width="1.5"/>
<path id="Vector_2" d="M13.5375 14.7493L6.33687 21.9499C5.71387 22.5484 4.88109 22.8787 4.01729 22.87C3.15349 22.8613 2.32752 22.5143 1.71669 21.9035C1.10586 21.2926 0.75886 20.4667 0.750167 19.6029C0.741475 18.7391 1.07179 17.9063 1.6702 17.2833L8.87087 10.0826" stroke="var(--stroke-0, white)" stroke-width="1.5" stroke-linecap="round"/>
<path id="Vector_3" d="M4.2147 19.4159H4.2042" stroke="var(--stroke-0, white)" stroke-width="2" stroke-linecap="round" stroke-linejoin="round"/>
</g>
</svg>
